<svg width="1440" height="880" viewBox="0 0 1440 880" fill="none" xmlns="http://www.w3.org/2000/svg">
<g clip-path="url(#clip0_2023_39255)">
<rect width="1440" height="880" fill="#DCDCDC"/>
<rect y="-157.439" width="240" height="240" rx="26.4828" stroke="#F0F0F0" stroke-width="2.48276"/>
<rect x="240" y="-157.439" width="240" height="240" rx="26.4828" stroke="#F0F0F0" stroke-width="2.48276"/>
<rect x="480" y="-157.439" width="240" height="240" rx="26.4828" stroke="#F0F0F0" stroke-width="2.48276"/>
<rect x="720" y="-157.439" width="240" height="240" rx="26.4828" stroke="#F0F0F0" stroke-width="2.48276"/>
<rect x="960" y="-157.439" width="240" height="240" rx="26.4828" stroke="#F0F0F0" stroke-width="2.48276"/>
<rect x="1200" y="-157.439" width="240" height="240" rx="26.4828" stroke="#F0F0F0" stroke-width="2.48276"/>
<rect y="82.5596" width="240" height="240" rx="26.4828" stroke="#F0F0F0" stroke-width="2.48276"/>
<rect x="240" y="82.5596" width="240" height="240" rx="26.4828" stroke="#F0F0F0" stroke-width="2.48276"/>
<rect x="480" y="82.5596" width="240" height="240" rx="26.4828" stroke="#F0F0F0" stroke-width="2.48276"/>
<rect x="720" y="82.5596" width="240" height="240" rx="26.4828" stroke="#F0F0F0" stroke-width="2.48276"/>
<rect x="960" y="82.5596" width="240" height="240" rx="26.4828" stroke="#F0F0F0" stroke-width="2.48276"/>
<rect x="1200" y="82.5596" width="240" height="240" rx="26.4828" stroke="#F0F0F0" stroke-width="2.48276"/>
<rect y="322.56" width="240" height="240" rx="26.4828" stroke="#F0F0F0" stroke-width="2.48276"/>
<rect x="240" y="322.56" width="240" height="240" rx="26.4828" stroke="#F0F0F0" stroke-width="2.48276"/>
<rect x="480" y="322.56" width="240" height="240" rx="26.4828" stroke="#F0F0F0" stroke-width="2.48276"/>
<rect x="720" y="322.56" width="240" height="240" rx="26.4828" stroke="#F0F0F0" stroke-width="2.48276"/>
<rect x="960" y="322.56" width="240" height="240" rx="26.4828" stroke="#F0F0F0" stroke-width="2.48276"/>
<rect x="1200" y="322.56" width="240" height="240" rx="26.4828" stroke="#F0F0F0" stroke-width="2.48276"/>
<rect y="562.56" width="240" height="240" rx="26.4828" stroke="#F0F0F0" stroke-width="2.48276"/>
<rect x="240" y="562.56" width="240" height="240" rx="26.4828" stroke="#F0F0F0" stroke-width="2.48276"/>
<rect x="480" y="562.56" width="240" height="240" rx="26.4828" stroke="#F0F0F0" stroke-width="2.48276"/>
<path d="M720 589.04C720 574.416 731.855 562.56 746.48 562.56H939.5C950.822 562.56 960 571.739 960 583.06V776.08C960 790.705 948.145 802.56 933.52 802.56H746.48C731.855 802.56 720 790.705 720 776.08V589.04Z" stroke="#F0F0F0" stroke-width="2.48276"/>
<rect x="960" y="562.56" width="240" height="240" rx="26.4828" stroke="#F0F0F0" stroke-width="2.48276"/>
<rect x="1200" y="562.56" width="240" height="240" rx="26.4828" stroke="#F0F0F0" stroke-width="2.48276"/>
<rect y="802.56" width="240" height="240" rx="26.4828" stroke="#F0F0F0" stroke-width="2.48276"/>
<rect x="240" y="802.56" width="240" height="240" rx="26.4828" stroke="#F0F0F0" stroke-width="2.48276"/>
<rect x="480" y="802.56" width="240" height="240" rx="26.4828" stroke="#F0F0F0" stroke-width="2.48276"/>
<rect x="720" y="802.56" width="240" height="240" rx="26.4828" stroke="#F0F0F0" stroke-width="2.48276"/>
<rect x="960" y="802.56" width="240" height="240" rx="26.4828" stroke="#F0F0F0" stroke-width="2.48276"/>
<rect x="1200" y="802.56" width="240" height="240" rx="26.4828" stroke="#F0F0F0" stroke-width="2.48276"/>
<path d="M960 -137.578V56.0775C960 70.7036 971.857 82.5603 986.483 82.5603H1173.52C1188.14 82.5603 1200 94.417 1200 109.043V296.078C1200 310.704 1211.86 322.56 1226.48 322.56H1413.52C1428.14 322.56 1440 334.417 1440 349.043V536.078C1440 550.704 1451.86 562.56 1466.48 562.56H1653.52C1668.14 562.56 1680 574.417 1680 589.043V776.078C1680 790.704 1691.86 802.56 1706.48 802.56H1900.14M720 -137.578V56.0775C720 70.7036 731.857 82.5603 746.483 82.5603H933.517C948.143 82.5603 960 94.417 960 109.043V296.078C960 310.704 971.857 322.56 986.483 322.56H1173.52C1188.14 322.56 1200 334.417 1200 349.043V536.078C1200 550.704 1188.14 562.56 1173.52 562.56H986.483C971.857 562.56 960 550.704 960 536.078V345.733L959.768 344.169C957.991 332.174 947.81 323.217 935.686 322.984L913.655 322.56H746.483C731.857 322.56 720 334.417 720 349.043V536.078C720 550.704 731.857 562.56 746.483 562.56H935.172L941.459 562.979C951.893 563.675 960 572.341 960 582.797V603.112M960 582.422V776.078C960 790.704 971.857 802.56 986.483 802.56H1173.52C1188.14 802.56 1200 814.417 1200 829.043V1016.08C1200 1030.7 1211.86 1042.56 1226.48 1042.56H1413.52C1428.14 1042.56 1440 1054.42 1440 1069.04V1256.08C1440 1270.7 1451.86 1282.56 1466.48 1282.56H1653.52C1668.14 1282.56 1680 1294.42 1680 1309.04V1496.08C1680 1510.7 1691.86 1522.56 1706.48 1522.56H1900.14" stroke="url(#paint0_linear_2023_39255)" stroke-opacity="0.8" stroke-width="2.48276"/>
<rect y="1345.65" width="1345.66" height="720" transform="rotate(-90 0 1345.65)" fill="url(#paint1_linear_2023_39255)"/>
<rect x="1345.65" y="1522.76" width="1345.66" height="720" transform="rotate(-180 1345.65 1522.76)" fill="url(#paint2_linear_2023_39255)"/>
<ellipse cx="940.139" cy="-162.206" rx="895.448" ry="763.034" fill="url(#paint3_radial_2023_39255)"/>
</g>
<defs>
<linearGradient id="paint0_linear_2023_39255" x1="720" y1="-137.578" x2="1873.66" y2="1290.01" gradientUnits="userSpaceOnUse">
<stop offset="0.0819437" stop-color="#F7F7F7"/>
<stop offset="0.265" stop-color="#ACF2E7"/>
<stop offset="0.52" stop-color="#24A793"/>
<stop offset="0.695" stop-color="#0A2D27"/>
</linearGradient>
<linearGradient id="paint1_linear_2023_39255" x1="672.828" y1="1345.65" x2="672.828" y2="2065.65" gradientUnits="userSpaceOnUse">
<stop stop-color="white"/>
<stop offset="1" stop-color="white" stop-opacity="0"/>
</linearGradient>
<linearGradient id="paint2_linear_2023_39255" x1="2018.48" y1="1522.76" x2="2018.48" y2="2242.76" gradientUnits="userSpaceOnUse">
<stop stop-color="white"/>
<stop offset="0.713542" stop-color="white" stop-opacity="0.7"/>
<stop offset="1" stop-color="white" stop-opacity="0"/>
</linearGradient>
<radialGradient id="paint3_radial_2023_39255" cx="0" cy="0" r="1" gradientUnits="userSpaceOnUse" gradientTransform="translate(940.139 -162.206) rotate(90) scale(763.034 895.448)">
<stop stop-color="white"/>
<stop offset="1" stop-color="white" stop-opacity="0"/>
</radialGradient>
<clipPath id="clip0_2023_39255">
<rect width="1440" height="880" fill="white"/>
</clipPath>
</defs>
</svg>
